<mxfile host="app.diagrams.net" modified="2020-10-21T14:26:28.688Z" agent="5.0 (Macintosh; Intel Mac OS X 10_15_7) AppleWebKit/537.36 (KHTML, like Gecko) Chrome/86.0.4240.80 Safari/537.36" etag="lAg79Qir1ozvYACzEScO" version="13.8.1" type="github">
  <diagram id="3wv-Vl3mveDL5-GvOdy_" name="Page-1">
    <mxGraphModel dx="1426" dy="717" grid="1" gridSize="10" guides="1" tooltips="1" connect="1" arrows="1" fold="1" page="1" pageScale="1" pageWidth="827" pageHeight="1169" math="0" shadow="0">
      <root>
        <mxCell id="0" />
        <mxCell id="1" parent="0" />
        <mxCell id="y_-tve8XzApdYKb5QCx3-3" value="" style="edgeStyle=orthogonalEdgeStyle;rounded=0;orthogonalLoop=1;jettySize=auto;html=1;" edge="1" parent="1" source="y_-tve8XzApdYKb5QCx3-1" target="y_-tve8XzApdYKb5QCx3-2">
          <mxGeometry relative="1" as="geometry" />
        </mxCell>
        <mxCell id="y_-tve8XzApdYKb5QCx3-1" value="Admin" style="rounded=0;whiteSpace=wrap;html=1;" vertex="1" parent="1">
          <mxGeometry x="320" y="20" width="120" height="60" as="geometry" />
        </mxCell>
        <mxCell id="y_-tve8XzApdYKb5QCx3-17" style="edgeStyle=orthogonalEdgeStyle;rounded=0;orthogonalLoop=1;jettySize=auto;html=1;entryX=0.5;entryY=0;entryDx=0;entryDy=0;" edge="1" parent="1" source="y_-tve8XzApdYKb5QCx3-20" target="y_-tve8XzApdYKb5QCx3-8">
          <mxGeometry relative="1" as="geometry" />
        </mxCell>
        <mxCell id="y_-tve8XzApdYKb5QCx3-28" value="" style="edgeStyle=orthogonalEdgeStyle;rounded=0;orthogonalLoop=1;jettySize=auto;html=1;" edge="1" parent="1" source="y_-tve8XzApdYKb5QCx3-2" target="y_-tve8XzApdYKb5QCx3-27">
          <mxGeometry relative="1" as="geometry" />
        </mxCell>
        <mxCell id="y_-tve8XzApdYKb5QCx3-34" value="" style="edgeStyle=orthogonalEdgeStyle;rounded=0;orthogonalLoop=1;jettySize=auto;html=1;" edge="1" parent="1" source="y_-tve8XzApdYKb5QCx3-2" target="y_-tve8XzApdYKb5QCx3-33">
          <mxGeometry relative="1" as="geometry" />
        </mxCell>
        <mxCell id="y_-tve8XzApdYKb5QCx3-2" value="Đại lý cấp 1, CTV, Nhà phân phối" style="ellipse;whiteSpace=wrap;html=1;rounded=0;" vertex="1" parent="1">
          <mxGeometry x="320" y="120" width="120" height="80" as="geometry" />
        </mxCell>
        <mxCell id="y_-tve8XzApdYKb5QCx3-11" value="" style="edgeStyle=orthogonalEdgeStyle;rounded=0;orthogonalLoop=1;jettySize=auto;html=1;" edge="1" parent="1" source="y_-tve8XzApdYKb5QCx3-15" target="y_-tve8XzApdYKb5QCx3-10">
          <mxGeometry relative="1" as="geometry" />
        </mxCell>
        <mxCell id="y_-tve8XzApdYKb5QCx3-19" value="" style="edgeStyle=orthogonalEdgeStyle;rounded=0;orthogonalLoop=1;jettySize=auto;html=1;" edge="1" parent="1" source="y_-tve8XzApdYKb5QCx3-8" target="y_-tve8XzApdYKb5QCx3-18">
          <mxGeometry relative="1" as="geometry" />
        </mxCell>
        <mxCell id="y_-tve8XzApdYKb5QCx3-32" style="edgeStyle=orthogonalEdgeStyle;rounded=0;orthogonalLoop=1;jettySize=auto;html=1;entryX=0.5;entryY=1;entryDx=0;entryDy=0;" edge="1" parent="1" source="y_-tve8XzApdYKb5QCx3-8" target="y_-tve8XzApdYKb5QCx3-27">
          <mxGeometry relative="1" as="geometry" />
        </mxCell>
        <mxCell id="y_-tve8XzApdYKb5QCx3-8" value="Tạo cấp 2 theo link&lt;br&gt;(Đại lý cấp 1, CTV, Nhà phân phối)&lt;br&gt;" style="whiteSpace=wrap;html=1;rounded=0;" vertex="1" parent="1">
          <mxGeometry x="300" y="490" width="160" height="70" as="geometry" />
        </mxCell>
        <mxCell id="y_-tve8XzApdYKb5QCx3-26" value="" style="edgeStyle=orthogonalEdgeStyle;rounded=0;orthogonalLoop=1;jettySize=auto;html=1;" edge="1" parent="1" source="y_-tve8XzApdYKb5QCx3-10" target="y_-tve8XzApdYKb5QCx3-25">
          <mxGeometry relative="1" as="geometry" />
        </mxCell>
        <mxCell id="y_-tve8XzApdYKb5QCx3-10" value="&lt;span&gt;Đại lý cấp 3, CTV, Nhà phân phối&lt;/span&gt;" style="whiteSpace=wrap;html=1;rounded=0;" vertex="1" parent="1">
          <mxGeometry x="275" y="790" width="210" height="110" as="geometry" />
        </mxCell>
        <mxCell id="y_-tve8XzApdYKb5QCx3-15" value="Có quyền tạo cấp 3 có thể tạo rate dịch vụ cho cấp dưới" style="ellipse;whiteSpace=wrap;html=1;aspect=fixed;" vertex="1" parent="1">
          <mxGeometry x="325" y="640" width="110" height="110" as="geometry" />
        </mxCell>
        <mxCell id="y_-tve8XzApdYKb5QCx3-16" value="" style="edgeStyle=orthogonalEdgeStyle;rounded=0;orthogonalLoop=1;jettySize=auto;html=1;" edge="1" parent="1" source="y_-tve8XzApdYKb5QCx3-8" target="y_-tve8XzApdYKb5QCx3-15">
          <mxGeometry relative="1" as="geometry">
            <mxPoint x="360" y="280" as="sourcePoint" />
            <mxPoint x="380" y="410" as="targetPoint" />
          </mxGeometry>
        </mxCell>
        <mxCell id="y_-tve8XzApdYKb5QCx3-18" value="Không có quyền tạo cấp 3" style="whiteSpace=wrap;html=1;rounded=0;" vertex="1" parent="1">
          <mxGeometry x="640" y="470" width="120" height="50" as="geometry" />
        </mxCell>
        <mxCell id="y_-tve8XzApdYKb5QCx3-20" value="&lt;span&gt;Có quyền tạo cấp 2, có thể tạo rate dịch vụ cho cấp dưới&lt;/span&gt;" style="ellipse;whiteSpace=wrap;html=1;aspect=fixed;" vertex="1" parent="1">
          <mxGeometry x="320" y="310" width="120" height="120" as="geometry" />
        </mxCell>
        <mxCell id="y_-tve8XzApdYKb5QCx3-22" style="edgeStyle=orthogonalEdgeStyle;rounded=0;orthogonalLoop=1;jettySize=auto;html=1;entryX=0.5;entryY=0;entryDx=0;entryDy=0;" edge="1" parent="1" source="y_-tve8XzApdYKb5QCx3-2" target="y_-tve8XzApdYKb5QCx3-20">
          <mxGeometry relative="1" as="geometry">
            <mxPoint x="380" y="200" as="sourcePoint" />
            <mxPoint x="390" y="330" as="targetPoint" />
          </mxGeometry>
        </mxCell>
        <mxCell id="y_-tve8XzApdYKb5QCx3-25" value="&lt;span style=&quot;color: rgb(0 , 0 , 0) ; font-family: &amp;#34;helvetica&amp;#34; ; font-size: 12px ; font-style: normal ; font-weight: 400 ; letter-spacing: normal ; text-align: center ; text-indent: 0px ; text-transform: none ; word-spacing: 0px ; background-color: rgb(248 , 249 , 250) ; display: inline ; float: none&quot;&gt;.... Tổng 5 cấp bậc....&lt;/span&gt;" style="ellipse;whiteSpace=wrap;html=1;rounded=0;" vertex="1" parent="1">
          <mxGeometry x="320" y="950" width="120" height="80" as="geometry" />
        </mxCell>
        <mxCell id="y_-tve8XzApdYKb5QCx3-27" value="có thể cộng tiền cho cấp dưới không giới hạn" style="rhombus;whiteSpace=wrap;html=1;rounded=0;" vertex="1" parent="1">
          <mxGeometry x="30" y="90" width="210" height="180" as="geometry" />
        </mxCell>
        <mxCell id="y_-tve8XzApdYKb5QCx3-33" value="Hết tiền- &amp;gt;chân rết k sử dụng được dịch vụ" style="whiteSpace=wrap;html=1;rounded=0;" vertex="1" parent="1">
          <mxGeometry x="520" y="130" width="120" height="60" as="geometry" />
        </mxCell>
      </root>
    </mxGraphModel>
  </diagram>
</mxfile>
